<svg width="27" height="32" viewBox="0 0 27 32" fill="none" xmlns="http://www.w3.org/2000/svg">
<path d="M3 31.5C2.175 31.5 1.46875 31.2062 0.88125 30.6187C0.29375 30.0312 0 29.325 0 28.5V10.5C0 9.675 0.29375 8.96875 0.88125 8.38125C1.46875 7.79375 2.175 7.5 3 7.5H6C6 5.425 6.73125 3.65625 8.19375 2.19375C9.65625 0.73125 11.425 0 13.5 0C15.575 0 17.3438 0.73125 18.8062 2.19375C20.2687 3.65625 21 5.425 21 7.5H24C24.825 7.5 25.5312 7.79375 26.1187 8.38125C26.7062 8.96875 27 9.675 27 10.5V28.5C27 29.325 26.7062 30.0312 26.1187 30.6187C25.5312 31.2062 24.825 31.5 24 31.5H3ZM3 28.5H24V10.5H3V28.5ZM13.5 19.5C15.575 19.5 17.3438 18.7687 18.8062 17.3062C20.2687 15.8438 21 14.075 21 12H18C18 13.25 17.5625 14.3125 16.6875 15.1875C15.8125 16.0625 14.75 16.5 13.5 16.5C12.25 16.5 11.1875 16.0625 10.3125 15.1875C9.4375 14.3125 9 13.25 9 12H6C6 14.075 6.73125 15.8438 8.19375 17.3062C9.65625 18.7687 11.425 19.5 13.5 19.5ZM9 7.5H18C18 6.25 17.5625 5.1875 16.6875 4.3125C15.8125 3.4375 14.75 3 13.5 3C12.25 3 11.1875 3.4375 10.3125 4.3125C9.4375 5.1875 9 6.25 9 7.5ZM3 28.5V10.5V28.5Z" fill="#EE5B2B"/>
</svg>
